<?xml version="1.0" ?><!DOCTYPE svg  PUBLIC '-//W3C//DTD SVG 1.1//EN'  'http://www.w3.org/Graphics/SVG/1.1/DTD/svg11.dtd'><svg enable-background="new 0 0 48 48" height="48px" id="Layer_1" version="1.1" viewBox="0 0 48 48" width="48px" xml:space="preserve" xmlns="http://www.w3.org/2000/svg" xmlns:xlink="http://www.w3.org/1999/xlink"><g><path d="M24.097,0c-13.255,0-24,10.745-24,24s10.745,24,24,24s24-10.745,24-24S37.352,0,24.097,0z M24.002,44.008   c-11.046,0-20-8.954-20-20c0-11.046,8.954-20,20-20s20,8.954,20,20C44.002,35.054,35.048,44.008,24.002,44.008z" fill="#231F20"/><path d="M36.135,23.125l-8.904-7.339c-1.969-1.622-1.985,0.929-1.985,0.929v1.525   c-0.078,0.572-0.491,1.47-2.326,1.47h-8.896h-0.847c0,0-1.883-0.076-1.883,1.914v0.614v3.033v0.479   c0.05,0.689,0.435,2.15,2.812,2.15h9.459c1.744,0,1.682-1.309,1.682-1.309v-0.076c0-1.037-1.039-1.218-1.561-1.244h-7.912   c-1.405,0-1.699-0.684-1.75-1.118v-0.539c0-1.135,0.846-1.346,1.32-1.376h9.902h0.29c1.607,0,2.113-0.867,2.27-1.506l0.002,0   c0,0,0.158-0.895,1.043-0.167l3.426,2.823c0,0,0.009,0.008,0.012,0.009l0.05,0.042c0.244,0.208,1.094,1.053-0.06,1.867   l-2.797,1.969l-0.02,0.014l-1.587,1.117v-0.033l-1.32,0.902c-1.319,0.904-1.309,2.396-1.309,2.396v0.342   c0,0,0.161,1.332,1.458,0.422l9.431-6.638c0,0,0-0.001,0.001-0.001C37.855,24.586,36.139,23.128,36.135,23.125z" fill="#231F20"/></g></svg>