<?xml version="1.0" encoding="UTF-8"?><!DOCTYPE svg PUBLIC "-//W3C//DTD SVG 1.1//EN" "http://www.w3.org/Graphics/SVG/1.1/DTD/svg11.dtd"><svg xmlns="http://www.w3.org/2000/svg"><symbol id="icon-facebook" viewBox="0 0 10 19">
    <title>
        facebook
    </title>
    <path d="M9.766.157v2.946H8.014c-.64 0-1.071.134-1.295.402-.223.268-.335.67-.335 1.205v2.11h3.27l-.435 3.303H6.384v8.471H2.97v-8.47H.123V6.82H2.97V4.387c0-1.384.387-2.457 1.161-3.22C4.904.404 5.934.023 7.222.023c1.093 0 1.941.045 2.544.134z" fill-rule="evenodd"/>
</symbol><symbol id="icon-next" viewBox="0 0 48 48">
    <g>
        <path d="M24.097 0c-13.255 0-24 10.745-24 24s10.745 24 24 24 24-10.745 24-24-10.745-24-24-24zm-.095 44.008c-11.046 0-20-8.954-20-20s8.954-20 20-20 20 8.954 20 20-8.954 20-20 20z"/>
        <path d="M36.135 23.125l-8.904-7.339c-1.969-1.622-1.985.929-1.985.929v1.525c-.078.572-.491 1.47-2.326 1.47h-9.743s-1.883-.076-1.883 1.914V25.75c.05.689.435 2.15 2.812 2.15h9.459c1.744 0 1.682-1.309 1.682-1.309v-.076c0-1.037-1.039-1.218-1.561-1.244h-7.912c-1.405 0-1.699-.684-1.75-1.118v-.539c0-1.135.846-1.346 1.32-1.376H25.536c1.607 0 2.113-.867 2.27-1.506h.002s.158-.895 1.043-.167l3.426 2.823s.009.008.012.009l.05.042c.244.208 1.094 1.053-.06 1.867l-2.797 1.969-.02.014-1.587 1.117v-.033l-1.32.902c-1.319.904-1.309 2.396-1.309 2.396v.342s.161 1.332 1.458.422l9.431-6.638.001-.001c1.719-1.21.003-2.668-.001-2.671z"/>
    </g>
</symbol><symbol id="icon-prev" viewBox="0 0 48 48">
    <g>
        <path d="M24 0C10.745 0 0 10.745 0 24c0 13.254 10.745 24 24 24s24-10.746 24-24C48 10.745 37.255 0 24 0zm-.095 44.008c-11.046 0-20-8.955-20-20s8.954-20 20-20 20 8.955 20 20-8.954 20-20 20z"/>
        <path d="M11.962 23.125l8.904-7.339c1.969-1.622 1.985.929 1.985.929v1.525c.078.572.491 1.471 2.326 1.471h9.743s1.883-.076 1.883 1.914V25.751c-.05.689-.435 2.15-2.812 2.15h-9.459c-1.744 0-1.682-1.309-1.682-1.309v-.076c0-1.037 1.039-1.219 1.561-1.244h7.912c1.405 0 1.699-.684 1.75-1.118v-.539c0-1.135-.846-1.346-1.32-1.377H22.561c-1.607 0-2.113-.866-2.27-1.506l-.002.001s-.158-.896-1.043-.167l-3.426 2.822s-.009.009-.012.01l-.05.041c-.244.209-1.094 1.054.06 1.868l2.797 1.969.02.014 1.587 1.117v-.033l1.32.902c1.319.904 1.309 2.396 1.309 2.396v.342s-.161 1.332-1.458.422l-9.431-6.639h-.001c-1.72-1.211-.003-2.669.001-2.672z"/>
    </g>
</symbol></svg>